<svg width="2241" height="688" viewBox="0 0 2241 688" fill="none" xmlns="http://www.w3.org/2000/svg">
<mask id="mask0_60_287" style="mask-type:alpha" maskUnits="userSpaceOnUse" x="860" y="0" width="1381" height="684">
<rect x="860.307" width="1380" height="684" fill="#D9D9D9"/>
</mask>
<g mask="url(#mask0_60_287)">
<path d="M860.307 -1.93119e-05H1175.31V56H1129.31V311H1059.31V180.5H985.307V191.5C985.307 221 972.807 234.5 950.307 234.5C917.307 234.5 875.807 190 875.807 157C875.807 137.5 884.307 124.5 914.807 124.5H1059.31V56H860.307V-1.93119e-05ZM1492.92 -1.93119e-05V56H1446.42V311H1376.92V240C1358.42 250.5 1336.92 256.5 1309.92 256.5C1237.42 256.5 1194.42 214.5 1178.42 131.5C1225.92 123.5 1246.42 110.5 1246.42 88C1246.42 75.5 1241.42 65 1232.42 56H1167.92V-1.93119e-05H1492.92ZM1257.42 164.5C1265.92 187.5 1282.42 200.5 1310.42 200.5C1336.92 200.5 1359.42 188 1376.92 170V56H1302.42C1311.42 69.5 1315.92 83.5 1315.92 98.5C1315.92 132.5 1295.92 151.5 1257.42 164.5ZM1593.81 56V311H1523.81V56H1485.31V-1.93119e-05H1639.81V56H1593.81Z" fill="black"/>
<path d="M998.807 684.5C943.807 630 908.307 586.5 891.807 556.5C880.807 538 876.807 523.5 876.807 510.5C876.807 489.5 889.307 475 914.307 475C930.307 475 943.307 482 955.307 492.5C964.807 481.5 968.807 468 968.807 451C968.807 439 966.807 427.5 962.807 418H860.307V362H1236.81V418H1190.81V673H1120.81V560C1107.31 562.5 1091.81 564 1075.81 564C1048.31 564 1018.31 558.5 989.807 543.5C982.307 548.5 973.807 553.5 964.307 557.5C987.307 584.5 1018.31 613.5 1050.31 642.5L998.807 684.5ZM1075.81 507.5C1091.31 507.5 1106.31 506 1120.81 502.5V418H1032.31C1036.31 430 1038.31 442.5 1038.31 458.5C1038.31 475.5 1034.31 490 1027.81 502C1043.31 506 1057.81 507.5 1075.81 507.5ZM1434.95 639.5L1386.95 684C1332.95 638 1292.95 598.5 1268.45 564C1252.45 542.5 1245.95 526.5 1245.95 509.5C1245.95 488.5 1260.45 475 1282.95 475C1299.95 475 1313.95 482 1328.95 495C1344.95 484 1351.95 469.5 1351.95 450C1351.95 438.5 1349.95 427.5 1346.45 418H1229.45V362H1457.45V418H1415.45C1418.95 429.5 1421.45 443 1421.45 460C1421.45 509 1390.95 540 1341.95 559C1369.45 586 1400.45 612.5 1434.95 639.5ZM1872.65 418H1709.65V488C1724.15 478.5 1741.15 473 1763.65 473C1815.65 473 1848.65 505.5 1848.65 559C1848.65 591.5 1837.65 623 1809.65 658.5L1749.15 625C1767.15 604 1779.15 583.5 1779.15 560C1779.15 539 1768.65 528.5 1750.65 528.5C1734.15 528.5 1718.15 539 1709.65 553V673H1639.65V609.5C1620.65 621.5 1597.15 627.5 1571.65 627.5C1510.15 627.5 1467.65 595.5 1467.65 537C1467.65 480.5 1507.15 448.5 1575.65 448.5C1592.65 448.5 1609.65 450 1624.65 453L1618.65 508.5C1608.65 506 1596.65 504.5 1584.15 504.5C1554.15 504.5 1537.65 517 1537.65 539C1537.65 560.5 1553.65 571.5 1577.15 571.5C1603.15 571.5 1626.15 556.5 1639.65 539V418H1450.15V362H1872.65V418ZM1973.69 418V673H1903.69V418H1865.19V362H2019.69V418H1973.69ZM2217.66 639.5L2169.66 684C2115.66 638 2075.66 598.5 2051.16 564C2035.16 542.5 2028.66 526.5 2028.66 509.5C2028.66 488.5 2043.16 475 2065.66 475C2082.66 475 2096.66 482 2111.66 495C2127.66 484 2134.66 469.5 2134.66 450C2134.66 438.5 2132.66 427.5 2129.16 418H2012.16V362H2240.16V418H2198.16C2201.66 429.5 2204.16 443 2204.16 460C2204.16 509 2173.66 540 2124.66 559C2152.16 586 2183.16 612.5 2217.66 639.5Z" fill="black"/>
</g>
<rect y="2" width="707" height="684" fill="#333333"/>
<path d="M661.688 173.525V266.689L504.596 175.993V304.805L661.688 395.502V516.509L425.336 652.967V559.471L604.543 456.006L425.336 352.541V37.0684L661.688 173.525Z" fill="white"/>
<path d="M345.814 686.11L346.499 687.735L230.336 620.668L129.99 382.752V562.732L49.0215 515.985V190.777L49 190.726V173.299L113.757 135.913L264.845 494.135V48.6846L345.708 2H345.814V686.11Z" fill="white"/>
</svg>
