<svg width="2231" height="688" viewBox="0 0 2231 688" fill="none" xmlns="http://www.w3.org/2000/svg">
<mask id="mask0_60_285" style="mask-type:alpha" maskUnits="userSpaceOnUse" x="850" y="0" width="1381" height="684">
<rect x="850.307" width="1380" height="684" fill="#D9D9D9"/>
</mask>
<g mask="url(#mask0_60_285)">
<path d="M850.307 -1.93119e-05H1165.31V56H1119.31V311H1049.31V180.5H975.307V191.5C975.307 221 962.807 234.5 940.307 234.5C907.307 234.5 865.807 190 865.807 157C865.807 137.5 874.307 124.5 904.807 124.5H1049.31V56H850.307V-1.93119e-05ZM1482.92 -1.93119e-05V56H1436.42V311H1366.92V240C1348.42 250.5 1326.92 256.5 1299.92 256.5C1227.42 256.5 1184.42 214.5 1168.42 131.5C1215.92 123.5 1236.42 110.5 1236.42 88C1236.42 75.5 1231.42 65 1222.42 56H1157.92V-1.93119e-05H1482.92ZM1247.42 164.5C1255.92 187.5 1272.42 200.5 1300.42 200.5C1326.92 200.5 1349.42 188 1366.92 170V56H1292.42C1301.42 69.5 1305.92 83.5 1305.92 98.5C1305.92 132.5 1285.92 151.5 1247.42 164.5ZM1583.81 56V311H1513.81V56H1475.31V-1.93119e-05H1629.81V56H1583.81Z" fill="#E33231"/>
<path d="M988.807 684.5C933.807 630 898.307 586.5 881.807 556.5C870.807 538 866.807 523.5 866.807 510.5C866.807 489.5 879.307 475 904.307 475C920.307 475 933.307 482 945.307 492.5C954.807 481.5 958.807 468 958.807 451C958.807 439 956.807 427.5 952.807 418H850.307V362H1226.81V418H1180.81V673H1110.81V560C1097.31 562.5 1081.81 564 1065.81 564C1038.31 564 1008.31 558.5 979.807 543.5C972.307 548.5 963.807 553.5 954.307 557.5C977.307 584.5 1008.31 613.5 1040.31 642.5L988.807 684.5ZM1065.81 507.5C1081.31 507.5 1096.31 506 1110.81 502.5V418H1022.31C1026.31 430 1028.31 442.5 1028.31 458.5C1028.31 475.5 1024.31 490 1017.81 502C1033.31 506 1047.81 507.5 1065.81 507.5ZM1424.95 639.5L1376.95 684C1322.95 638 1282.95 598.5 1258.45 564C1242.45 542.5 1235.95 526.5 1235.95 509.5C1235.95 488.5 1250.45 475 1272.95 475C1289.95 475 1303.95 482 1318.95 495C1334.95 484 1341.95 469.5 1341.95 450C1341.95 438.5 1339.95 427.5 1336.45 418H1219.45V362H1447.45V418H1405.45C1408.95 429.5 1411.45 443 1411.45 460C1411.45 509 1380.95 540 1331.95 559C1359.45 586 1390.45 612.5 1424.95 639.5ZM1862.65 418H1699.65V488C1714.15 478.5 1731.15 473 1753.65 473C1805.65 473 1838.65 505.5 1838.65 559C1838.65 591.5 1827.65 623 1799.65 658.5L1739.15 625C1757.15 604 1769.15 583.5 1769.15 560C1769.15 539 1758.65 528.5 1740.65 528.5C1724.15 528.5 1708.15 539 1699.65 553V673H1629.65V609.5C1610.65 621.5 1587.15 627.5 1561.65 627.5C1500.15 627.5 1457.65 595.5 1457.65 537C1457.65 480.5 1497.15 448.5 1565.65 448.5C1582.65 448.5 1599.65 450 1614.65 453L1608.65 508.5C1598.65 506 1586.65 504.5 1574.15 504.5C1544.15 504.5 1527.65 517 1527.65 539C1527.65 560.5 1543.65 571.5 1567.15 571.5C1593.15 571.5 1616.15 556.5 1629.65 539V418H1440.15V362H1862.65V418ZM1963.69 418V673H1893.69V418H1855.19V362H2009.69V418H1963.69ZM2207.66 639.5L2159.66 684C2105.66 638 2065.66 598.5 2041.16 564C2025.16 542.5 2018.66 526.5 2018.66 509.5C2018.66 488.5 2033.16 475 2055.66 475C2072.66 475 2086.66 482 2101.66 495C2117.66 484 2124.66 469.5 2124.66 450C2124.66 438.5 2122.66 427.5 2119.16 418H2002.16V362H2230.16V418H2188.16C2191.66 429.5 2194.16 443 2194.16 460C2194.16 509 2163.66 540 2114.66 559C2142.16 586 2173.16 612.5 2207.66 639.5Z" fill="#0F53AD"/>
</g>
<rect y="2" width="707" height="684" fill="black"/>
<path d="M661.688 173.525V266.689L504.596 175.993V304.805L661.688 395.502V516.509L425.336 652.967V559.471L604.543 456.006L425.336 352.541V37.0684L661.688 173.525Z" fill="white"/>
<path d="M345.814 686.11L346.499 687.735L230.336 620.668L129.99 382.752V562.732L49.0215 515.985V190.777L49 190.726V173.299L113.757 135.913L264.845 494.135V48.6846L345.708 2H345.814V686.11Z" fill="white"/>
</svg>
