<svg width="1380" height="685" viewBox="0 0 1380 685" fill="none" xmlns="http://www.w3.org/2000/svg">
<mask id="mask0_3103_8321" style="mask-type:alpha" maskUnits="userSpaceOnUse" x="0" y="0" width="1380" height="684">
<rect width="1380" height="684" fill="#D9D9D9"/>
</mask>
<g mask="url(#mask0_3103_8321)">
<path d="M0 -1.93119e-05H315V56H269V311H199V180.5H125V191.5C125 221 112.5 234.5 90 234.5C57 234.5 15.5 190 15.5 157C15.5 137.5 24 124.5 54.5 124.5H199V56H0V-1.93119e-05ZM632.617 -1.93119e-05V56H586.117V311H516.617V240C498.117 250.5 476.617 256.5 449.617 256.5C377.117 256.5 334.117 214.5 318.117 131.5C365.617 123.5 386.117 110.5 386.117 88C386.117 75.5 381.117 65 372.117 56H307.617V-1.93119e-05H632.617ZM397.117 164.5C405.617 187.5 422.117 200.5 450.117 200.5C476.617 200.5 499.117 188 516.617 170V56H442.117C451.117 69.5 455.617 83.5 455.617 98.5C455.617 132.5 435.617 151.5 397.117 164.5ZM733.5 56V311H663.5V56H625V-1.93119e-05H779.5V56H733.5Z" fill="#E33231"/>
<path d="M138.5 684.5C83.5 630 48 586.5 31.5 556.5C20.5 538 16.5 523.5 16.5 510.5C16.5 489.5 29 475 54 475C70 475 83 482 95 492.5C104.5 481.5 108.5 468 108.5 451C108.5 439 106.5 427.5 102.5 418H0V362H376.5V418H330.5V673H260.5V560C247 562.5 231.5 564 215.5 564C188 564 158 558.5 129.5 543.5C122 548.5 113.5 553.5 104 557.5C127 584.5 158 613.5 190 642.5L138.5 684.5ZM215.5 507.5C231 507.5 246 506 260.5 502.5V418H172C176 430 178 442.5 178 458.5C178 475.5 174 490 167.5 502C183 506 197.5 507.5 215.5 507.5ZM574.641 639.5L526.641 684C472.641 638 432.641 598.5 408.141 564C392.141 542.5 385.641 526.5 385.641 509.5C385.641 488.5 400.141 475 422.641 475C439.641 475 453.641 482 468.641 495C484.641 484 491.641 469.5 491.641 450C491.641 438.5 489.641 427.5 486.141 418H369.141V362H597.141V418H555.141C558.641 429.5 561.141 443 561.141 460C561.141 509 530.641 540 481.641 559C509.141 586 540.141 612.5 574.641 639.5ZM1012.34 418H849.344V488C863.844 478.5 880.844 473 903.344 473C955.344 473 988.344 505.5 988.344 559C988.344 591.5 977.344 623 949.344 658.5L888.844 625C906.844 604 918.844 583.5 918.844 560C918.844 539 908.344 528.5 890.344 528.5C873.844 528.5 857.844 539 849.344 553V673H779.344V609.5C760.344 621.5 736.844 627.5 711.344 627.5C649.844 627.5 607.344 595.5 607.344 537C607.344 480.5 646.844 448.5 715.344 448.5C732.344 448.5 749.344 450 764.344 453L758.344 508.5C748.344 506 736.344 504.5 723.844 504.5C693.844 504.5 677.344 517 677.344 539C677.344 560.5 693.344 571.5 716.844 571.5C742.844 571.5 765.844 556.5 779.344 539V418H589.844V362H1012.34V418ZM1113.38 418V673H1043.38V418H1004.88V362H1159.38V418H1113.38ZM1357.36 639.5L1309.36 684C1255.36 638 1215.36 598.5 1190.86 564C1174.86 542.5 1168.36 526.5 1168.36 509.5C1168.36 488.5 1182.86 475 1205.36 475C1222.36 475 1236.36 482 1251.36 495C1267.36 484 1274.36 469.5 1274.36 450C1274.36 438.5 1272.36 427.5 1268.86 418H1151.86V362H1379.86V418H1337.86C1341.36 429.5 1343.86 443 1343.86 460C1343.86 509 1313.36 540 1264.36 559C1291.86 586 1322.86 612.5 1357.36 639.5Z" fill="#0F53AD"/>
</g>
</svg>
