<svg width="2240" height="686" viewBox="0 0 2240 686" fill="none" xmlns="http://www.w3.org/2000/svg">
<mask id="mask0_60_292" style="mask-type:alpha" maskUnits="userSpaceOnUse" x="860" y="0" width="1380" height="684">
<rect x="860" width="1380" height="684" fill="#E33231"/>
</mask>
<g mask="url(#mask0_60_292)">
<path d="M860 -1.93119e-05H1175V56H1129V311H1059V180.5H985V191.5C985 221 972.5 234.5 950 234.5C917 234.5 875.5 190 875.5 157C875.5 137.5 884 124.5 914.5 124.5H1059V56H860V-1.93119e-05ZM1492.62 -1.93119e-05V56H1446.12V311H1376.62V240C1358.12 250.5 1336.62 256.5 1309.62 256.5C1237.12 256.5 1194.12 214.5 1178.12 131.5C1225.62 123.5 1246.12 110.5 1246.12 88C1246.12 75.5 1241.12 65 1232.12 56H1167.62V-1.93119e-05H1492.62ZM1257.12 164.5C1265.62 187.5 1282.12 200.5 1310.12 200.5C1336.62 200.5 1359.12 188 1376.62 170V56H1302.12C1311.12 69.5 1315.62 83.5 1315.62 98.5C1315.62 132.5 1295.62 151.5 1257.12 164.5ZM1593.5 56V311H1523.5V56H1485V-1.93119e-05H1639.5V56H1593.5Z" fill="#E33231"/>
<path d="M998.5 684.5C943.5 630 908 586.5 891.5 556.5C880.5 538 876.5 523.5 876.5 510.5C876.5 489.5 889 475 914 475C930 475 943 482 955 492.5C964.5 481.5 968.5 468 968.5 451C968.5 439 966.5 427.5 962.5 418H860V362H1236.5V418H1190.5V673H1120.5V560C1107 562.5 1091.5 564 1075.5 564C1048 564 1018 558.5 989.5 543.5C982 548.5 973.5 553.5 964 557.5C987 584.5 1018 613.5 1050 642.5L998.5 684.5ZM1075.5 507.5C1091 507.5 1106 506 1120.5 502.5V418H1032C1036 430 1038 442.5 1038 458.5C1038 475.5 1034 490 1027.5 502C1043 506 1057.5 507.5 1075.5 507.5ZM1434.64 639.5L1386.64 684C1332.64 638 1292.64 598.5 1268.14 564C1252.14 542.5 1245.64 526.5 1245.64 509.5C1245.64 488.5 1260.14 475 1282.64 475C1299.64 475 1313.64 482 1328.64 495C1344.64 484 1351.64 469.5 1351.64 450C1351.64 438.5 1349.64 427.5 1346.14 418H1229.14V362H1457.14V418H1415.14C1418.64 429.5 1421.14 443 1421.14 460C1421.14 509 1390.64 540 1341.64 559C1369.14 586 1400.14 612.5 1434.64 639.5ZM1872.34 418H1709.34V488C1723.84 478.5 1740.84 473 1763.34 473C1815.34 473 1848.34 505.5 1848.34 559C1848.34 591.5 1837.34 623 1809.34 658.5L1748.84 625C1766.84 604 1778.84 583.5 1778.84 560C1778.84 539 1768.34 528.5 1750.34 528.5C1733.84 528.5 1717.84 539 1709.34 553V673H1639.34V609.5C1620.34 621.5 1596.84 627.5 1571.34 627.5C1509.84 627.5 1467.34 595.5 1467.34 537C1467.34 480.5 1506.84 448.5 1575.34 448.5C1592.34 448.5 1609.34 450 1624.34 453L1618.34 508.5C1608.34 506 1596.34 504.5 1583.84 504.5C1553.84 504.5 1537.34 517 1537.34 539C1537.34 560.5 1553.34 571.5 1576.84 571.5C1602.84 571.5 1625.84 556.5 1639.34 539V418H1449.84V362H1872.34V418ZM1973.38 418V673H1903.38V418H1864.88V362H2019.38V418H1973.38ZM2217.36 639.5L2169.36 684C2115.36 638 2075.36 598.5 2050.86 564C2034.86 542.5 2028.36 526.5 2028.36 509.5C2028.36 488.5 2042.86 475 2065.36 475C2082.36 475 2096.36 482 2111.36 495C2127.36 484 2134.36 469.5 2134.36 450C2134.36 438.5 2132.36 427.5 2128.86 418H2011.86V362H2239.86V418H2197.86C2201.36 429.5 2203.86 443 2203.86 460C2203.86 509 2173.36 540 2124.36 559C2151.86 586 2182.86 612.5 2217.36 639.5Z" fill="#E33231"/>
</g>
<rect width="707" height="684" fill="#0F53AD"/>
<path d="M661.688 171.525V264.689L504.596 173.993V302.805L661.688 393.502V514.509L425.336 650.967V557.471L604.543 454.006L425.336 350.541V35.0684L661.688 171.525Z" fill="white"/>
<path d="M345.814 684.11L346.499 685.735L230.336 618.668L129.99 380.752V560.732L49.0215 513.985V188.777L49 188.726V171.299L113.757 133.913L264.845 492.135V46.6846L345.708 0L345.814 0V684.11Z" fill="white"/>
</svg>
