<svg width="2334" height="691" viewBox="0 0 2334 691" fill="none" xmlns="http://www.w3.org/2000/svg">
<path d="M1876.65 245.7V198.45L1872.15 188.1V103.5C1872.15 88.5 1867.5 76.8 1858.2 68.4C1849.2 60 1835.25 55.8 1816.35 55.8C1803.45 55.8 1790.7 57.9 1778.1 62.1C1765.8 66 1755.3 71.4 1746.6 78.3L1721.4 29.25C1734.6 19.95 1750.5 12.75 1769.1 7.64998C1787.7 2.54999 1806.6 0 1825.8 0C1862.7 0 1891.35 8.69999 1911.75 26.1C1932.15 43.5 1942.35 70.65 1942.35 107.55V245.7H1876.65ZM1802.85 249.3C1783.95 249.3 1767.75 246.15 1754.25 239.85C1740.75 233.25 1730.4 224.4 1723.2 213.3C1716 202.2 1712.4 189.75 1712.4 175.95C1712.4 161.55 1715.85 148.95 1722.75 138.15C1729.95 127.35 1741.2 118.95 1756.5 112.95C1771.8 106.65 1791.75 103.5 1816.35 103.5H1880.7V144.45H1824C1807.5 144.45 1796.1 147.15 1789.8 152.55C1783.8 157.95 1780.8 164.7 1780.8 172.8C1780.8 181.8 1784.25 189 1791.15 194.4C1798.35 199.5 1808.1 202.05 1820.4 202.05C1832.1 202.05 1842.6 199.35 1851.9 193.95C1861.2 188.25 1867.95 180 1872.15 169.2L1882.95 201.6C1877.85 217.2 1868.55 229.05 1855.05 237.15C1841.55 245.25 1824.15 249.3 1802.85 249.3Z" fill="black"/>
<path d="M1499.47 336.6C1486.87 336.6 1474.42 334.65 1462.12 330.75C1449.82 326.85 1439.77 321.45 1431.97 314.55L1457.62 264.6C1463.02 269.4 1469.17 273.15 1476.07 275.85C1483.27 278.55 1490.32 279.9 1497.22 279.9C1507.12 279.9 1514.92 277.5 1520.62 272.7C1526.62 268.2 1532.02 260.55 1536.82 249.75L1549.42 220.05L1554.82 212.4L1641.67 3.6001H1709.17L1599.82 260.55C1592.02 280.05 1583.02 295.35 1572.82 306.45C1562.92 317.55 1551.82 325.35 1539.52 329.85C1527.52 334.35 1514.17 336.6 1499.47 336.6ZM1540.87 255.15L1432.87 3.6001H1505.32L1589.02 206.1L1540.87 255.15Z" fill="black"/>
<path d="M1344.03 245.7V198.45L1339.53 188.1V103.5C1339.53 88.5 1334.88 76.8 1325.58 68.4C1316.58 60 1302.63 55.8 1283.73 55.8C1270.83 55.8 1258.08 57.9 1245.48 62.1C1233.18 66 1222.68 71.4 1213.98 78.3L1188.78 29.25C1201.98 19.95 1217.88 12.75 1236.48 7.64998C1255.08 2.54999 1273.98 0 1293.18 0C1330.08 0 1358.73 8.69999 1379.13 26.1C1399.53 43.5 1409.73 70.65 1409.73 107.55V245.7H1344.03ZM1270.23 249.3C1251.33 249.3 1235.13 246.15 1221.63 239.85C1208.13 233.25 1197.78 224.4 1190.58 213.3C1183.38 202.2 1179.78 189.75 1179.78 175.95C1179.78 161.55 1183.23 148.95 1190.13 138.15C1197.33 127.35 1208.58 118.95 1223.88 112.95C1239.18 106.65 1259.13 103.5 1283.73 103.5H1348.08V144.45H1291.38C1274.88 144.45 1263.48 147.15 1257.18 152.55C1251.18 157.95 1248.18 164.7 1248.18 172.8C1248.18 181.8 1251.63 189 1258.53 194.4C1265.73 199.5 1275.48 202.05 1287.78 202.05C1299.48 202.05 1309.98 199.35 1319.28 193.95C1328.58 188.25 1335.33 180 1339.53 169.2L1350.33 201.6C1345.23 217.2 1335.93 229.05 1322.43 237.15C1308.93 245.25 1291.53 249.3 1270.23 249.3Z" fill="black"/>
<path d="M884.4 245.7V3.59998H951.45V70.65L938.85 50.4C947.55 34.2 960 21.75 976.2 13.05C992.4 4.34999 1010.85 0 1031.55 0C1050.75 0 1067.85 3.89999 1082.85 11.7C1098.15 19.2 1110.15 30.9 1118.85 46.8C1127.55 62.4 1131.9 82.5 1131.9 107.1V245.7H1061.7V117.9C1061.7 98.4 1057.35 84 1048.65 74.7C1040.25 65.4 1028.25 60.75 1012.65 60.75C1001.55 60.75 991.5 63.15 982.5 67.95C973.8 72.45 966.9 79.5 961.8 89.1C957 98.7 954.6 111 954.6 126V245.7H884.4Z" fill="black"/>
<path d="M2182.89 669.7V427.6H2249.94V496L2240.49 476.2C2247.69 459.1 2259.24 446.2 2275.14 437.5C2291.04 428.5 2310.39 424 2333.19 424V488.8C2330.19 488.5 2327.49 488.35 2325.09 488.35C2322.69 488.05 2320.14 487.9 2317.44 487.9C2298.24 487.9 2282.64 493.45 2270.64 504.55C2258.94 515.35 2253.09 532.3 2253.09 555.4V669.7H2182.89Z" fill="black"/>
<path d="M2053.66 669.7V622.45L2049.16 612.1V527.5C2049.16 512.5 2044.51 500.8 2035.21 492.4C2026.21 484 2012.26 479.8 1993.36 479.8C1980.46 479.8 1967.71 481.9 1955.11 486.1C1942.81 490 1932.31 495.4 1923.61 502.3L1898.41 453.25C1911.61 443.95 1927.51 436.75 1946.11 431.65C1964.71 426.55 1983.61 424 2002.81 424C2039.71 424 2068.36 432.7 2088.76 450.1C2109.16 467.5 2119.36 494.65 2119.36 531.55V669.7H2053.66ZM1979.86 673.3C1960.96 673.3 1944.76 670.15 1931.26 663.85C1917.76 657.25 1907.41 648.4 1900.21 637.3C1893.01 626.2 1889.41 613.75 1889.41 599.95C1889.41 585.55 1892.86 572.95 1899.76 562.15C1906.96 551.35 1918.21 542.95 1933.51 536.95C1948.81 530.65 1968.76 527.5 1993.36 527.5H2057.71V568.45H2001.01C1984.51 568.45 1973.11 571.15 1966.81 576.55C1960.81 581.95 1957.81 588.7 1957.81 596.8C1957.81 605.8 1961.26 613 1968.16 618.4C1975.36 623.5 1985.11 626.05 1997.41 626.05C2009.11 626.05 2019.61 623.35 2028.91 617.95C2038.21 612.25 2044.96 604 2049.16 593.2L2059.96 625.6C2054.86 641.2 2045.56 653.05 2032.06 661.15C2018.56 669.25 2001.16 673.3 1979.86 673.3Z" fill="black"/>
<path d="M1422.2 669.7V427.6H1489.25V496L1479.8 476.2C1487 459.1 1498.55 446.2 1514.45 437.5C1530.35 428.5 1549.7 424 1572.5 424V488.8C1569.5 488.5 1566.8 488.35 1564.4 488.35C1562 488.05 1559.45 487.9 1556.75 487.9C1537.55 487.9 1521.95 493.45 1509.95 504.55C1498.25 515.35 1492.4 532.3 1492.4 555.4V669.7H1422.2Z" fill="black"/>
<path d="M1292.96 669.7V622.45L1288.46 612.1V527.5C1288.46 512.5 1283.81 500.8 1274.51 492.4C1265.51 484 1251.56 479.8 1232.66 479.8C1219.76 479.8 1207.01 481.9 1194.41 486.1C1182.11 490 1171.61 495.4 1162.91 502.3L1137.71 453.25C1150.91 443.95 1166.81 436.75 1185.41 431.65C1204.01 426.55 1222.91 424 1242.11 424C1279.01 424 1307.66 432.7 1328.06 450.1C1348.46 467.5 1358.66 494.65 1358.66 531.55V669.7H1292.96ZM1219.16 673.3C1200.26 673.3 1184.06 670.15 1170.56 663.85C1157.06 657.25 1146.71 648.4 1139.51 637.3C1132.31 626.2 1128.71 613.75 1128.71 599.95C1128.71 585.55 1132.16 572.95 1139.06 562.15C1146.26 551.35 1157.51 542.95 1172.81 536.95C1188.11 530.65 1208.06 527.5 1232.66 527.5H1297.01V568.45H1240.31C1223.81 568.45 1212.41 571.15 1206.11 576.55C1200.11 581.95 1197.11 588.7 1197.11 596.8C1197.11 605.8 1200.56 613 1207.46 618.4C1214.66 623.5 1224.41 626.05 1236.71 626.05C1248.41 626.05 1258.91 623.35 1268.21 617.95C1277.51 612.25 1284.26 604 1288.46 593.2L1299.26 625.6C1294.16 641.2 1284.86 653.05 1271.36 661.15C1257.86 669.25 1240.46 673.3 1219.16 673.3Z" fill="black"/>
<path d="M986.85 673.3C966.15 673.3 946.2 670.9 927 666.1C908.1 661 893.1 654.7 882 647.2L905.4 596.8C916.5 603.7 929.55 609.4 944.55 613.9C959.85 618.1 974.85 620.2 989.55 620.2C1005.75 620.2 1017.15 618.25 1023.75 614.35C1030.65 610.45 1034.1 605.05 1034.1 598.15C1034.1 592.45 1031.4 588.25 1026 585.55C1020.9 582.55 1014 580.3 1005.3 578.8C996.6 577.3 987 575.8 976.5 574.3C966.3 572.8 955.95 570.85 945.45 568.45C934.95 565.75 925.35 561.85 916.65 556.75C907.95 551.65 900.9 544.75 895.5 536.05C890.4 527.35 887.85 516.1 887.85 502.3C887.85 487 892.2 473.5 900.9 461.8C909.9 450.1 922.8 440.95 939.6 434.35C956.4 427.45 976.5 424 999.9 424C1016.4 424 1033.2 425.8 1050.3 429.4C1067.4 433 1081.65 438.25 1093.05 445.15L1069.65 495.1C1057.95 488.2 1046.1 483.55 1034.1 481.15C1022.4 478.45 1011 477.1 999.9 477.1C984.3 477.1 972.9 479.2 965.7 483.4C958.5 487.6 954.9 493 954.9 499.6C954.9 505.6 957.45 510.1 962.55 513.1C967.95 516.1 975 518.5 983.7 520.3C992.4 522.1 1001.85 523.75 1012.05 525.25C1022.55 526.45 1033.05 528.4 1043.55 531.1C1054.05 533.8 1063.5 537.7 1071.9 542.8C1080.6 547.6 1087.65 554.35 1093.05 563.05C1098.45 571.45 1101.15 582.55 1101.15 596.35C1101.15 611.35 1096.65 624.7 1087.65 636.4C1078.65 647.8 1065.6 656.8 1048.5 663.4C1031.7 670 1011.15 673.3 986.85 673.3Z" fill="black"/>
<path d="M1684.88 524.886L1787.48 427.601H1871.18L1770.35 530.102L1880.18 669.7H1795.13L1718.79 574.909L1684.88 608.255V669.7H1614.68V426.7H1684.88V524.886Z" fill="black"/>
<rect y="4.7002" width="707" height="684" fill="black"/>
<path d="M661.688 176.226V269.39L504.596 178.693V307.505L661.688 398.202V519.209L425.336 655.667V562.171L604.543 458.706L425.336 355.241V39.7686L661.688 176.226Z" fill="white"/>
<path d="M345.814 688.811L346.499 690.436L230.336 623.368L129.99 385.452V565.433L49.0215 518.686V193.478L49 193.426V175.999L113.757 138.613L264.845 496.835V51.3848L345.708 4.7002H345.814V688.811Z" fill="white"/>
</svg>
