<svg width="2268" height="686" viewBox="0 0 2268 686" fill="none" xmlns="http://www.w3.org/2000/svg">
<mask id="mask0_60_381" style="mask-type:alpha" maskUnits="userSpaceOnUse" x="888" y="0" width="1380" height="684">
<rect x="888" width="1380" height="684" fill="#E33231"/>
</mask>
<g mask="url(#mask0_60_381)">
<path d="M888 -1.93119e-05H1203V56H1157V311H1087V180.5H1013V191.5C1013 221 1000.5 234.5 978 234.5C945 234.5 903.5 190 903.5 157C903.5 137.5 912 124.5 942.5 124.5H1087V56H888V-1.93119e-05ZM1520.62 -1.93119e-05V56H1474.12V311H1404.62V240C1386.12 250.5 1364.62 256.5 1337.62 256.5C1265.12 256.5 1222.12 214.5 1206.12 131.5C1253.62 123.5 1274.12 110.5 1274.12 88C1274.12 75.5 1269.12 65 1260.12 56H1195.62V-1.93119e-05H1520.62ZM1285.12 164.5C1293.62 187.5 1310.12 200.5 1338.12 200.5C1364.62 200.5 1387.12 188 1404.62 170V56H1330.12C1339.12 69.5 1343.62 83.5 1343.62 98.5C1343.62 132.5 1323.62 151.5 1285.12 164.5ZM1621.5 56V311H1551.5V56H1513V-1.93119e-05H1667.5V56H1621.5Z" fill="black"/>
<path d="M1026.5 684.5C971.5 630 936 586.5 919.5 556.5C908.5 538 904.5 523.5 904.5 510.5C904.5 489.5 917 475 942 475C958 475 971 482 983 492.5C992.5 481.5 996.5 468 996.5 451C996.5 439 994.5 427.5 990.5 418H888V362H1264.5V418H1218.5V673H1148.5V560C1135 562.5 1119.5 564 1103.5 564C1076 564 1046 558.5 1017.5 543.5C1010 548.5 1001.5 553.5 992 557.5C1015 584.5 1046 613.5 1078 642.5L1026.5 684.5ZM1103.5 507.5C1119 507.5 1134 506 1148.5 502.5V418H1060C1064 430 1066 442.5 1066 458.5C1066 475.5 1062 490 1055.5 502C1071 506 1085.5 507.5 1103.5 507.5ZM1462.64 639.5L1414.64 684C1360.64 638 1320.64 598.5 1296.14 564C1280.14 542.5 1273.64 526.5 1273.64 509.5C1273.64 488.5 1288.14 475 1310.64 475C1327.64 475 1341.64 482 1356.64 495C1372.64 484 1379.64 469.5 1379.64 450C1379.64 438.5 1377.64 427.5 1374.14 418H1257.14V362H1485.14V418H1443.14C1446.64 429.5 1449.14 443 1449.14 460C1449.14 509 1418.64 540 1369.64 559C1397.14 586 1428.14 612.5 1462.64 639.5ZM1900.34 418H1737.34V488C1751.84 478.5 1768.84 473 1791.34 473C1843.34 473 1876.34 505.5 1876.34 559C1876.34 591.5 1865.34 623 1837.34 658.5L1776.84 625C1794.84 604 1806.84 583.5 1806.84 560C1806.84 539 1796.34 528.5 1778.34 528.5C1761.84 528.5 1745.84 539 1737.34 553V673H1667.34V609.5C1648.34 621.5 1624.84 627.5 1599.34 627.5C1537.84 627.5 1495.34 595.5 1495.34 537C1495.34 480.5 1534.84 448.5 1603.34 448.5C1620.34 448.5 1637.34 450 1652.34 453L1646.34 508.5C1636.34 506 1624.34 504.5 1611.84 504.5C1581.84 504.5 1565.34 517 1565.34 539C1565.34 560.5 1581.34 571.5 1604.84 571.5C1630.84 571.5 1653.84 556.5 1667.34 539V418H1477.84V362H1900.34V418ZM2001.38 418V673H1931.38V418H1892.88V362H2047.38V418H2001.38ZM2245.36 639.5L2197.36 684C2143.36 638 2103.36 598.5 2078.86 564C2062.86 542.5 2056.36 526.5 2056.36 509.5C2056.36 488.5 2070.86 475 2093.36 475C2110.36 475 2124.36 482 2139.36 495C2155.36 484 2162.36 469.5 2162.36 450C2162.36 438.5 2160.36 427.5 2156.86 418H2039.86V362H2267.86V418H2225.86C2229.36 429.5 2231.86 443 2231.86 460C2231.86 509 2201.36 540 2152.36 559C2179.86 586 2210.86 612.5 2245.36 639.5Z" fill="black"/>
</g>
<rect width="707" height="684" fill="black"/>
<path d="M661.688 171.525V264.689L504.596 173.993V302.805L661.688 393.502V514.509L425.336 650.967V557.471L604.543 454.006L425.336 350.541V35.0684L661.688 171.525Z" fill="white"/>
<path d="M345.814 684.11L346.499 685.735L230.336 618.668L129.99 380.752V560.732L49.0215 513.985V188.777L49 188.726V171.299L113.757 133.913L264.845 492.135V46.6846L345.708 0L345.814 0V684.11Z" fill="white"/>
</svg>
